<svg width="64" height="64" viewBox="0 0 64 64" xmlns="http://www.w3.org/2000/svg">
  <!-- Background circle with gradient -->
  <defs>
    <linearGradient id="bgGradient" x1="0%" y1="0%" x2="100%" y2="100%">
      <stop offset="0%" style="stop-color:#3498db;stop-opacity:1" />
      <stop offset="100%" style="stop-color:#2980b9;stop-opacity:1" />
    </linearGradient>
    <linearGradient id="serverGradient" x1="0%" y1="0%" x2="100%" y2="100%">
      <stop offset="0%" style="stop-color:#ecf0f1;stop-opacity:1" />
      <stop offset="100%" style="stop-color:#bdc3c7;stop-opacity:1" />
    </linearGradient>
  </defs>
  
  <!-- Main background -->
  <circle cx="32" cy="32" r="30" fill="url(#bgGradient)" stroke="#2c3e50" stroke-width="2"/>
  
  <!-- Server rack representation -->
  <rect x="16" y="18" width="32" height="28" rx="2" fill="url(#serverGradient)" stroke="#34495e" stroke-width="1"/>
  
  <!-- Server slots -->
  <rect x="18" y="21" width="28" height="4" rx="1" fill="#27ae60" opacity="0.8"/>
  <rect x="18" y="27" width="28" height="4" rx="1" fill="#f39c12" opacity="0.8"/>
  <rect x="18" y="33" width="28" height="4" rx="1" fill="#e74c3c" opacity="0.8"/>
  <rect x="18" y="39" width="28" height="4" rx="1" fill="#9b59b6" opacity="0.8"/>
  
  <!-- Power indicators -->
  <circle cx="42" cy="23" r="1.5" fill="#27ae60"/>
  <circle cx="42" cy="29" r="1.5" fill="#f39c12"/>
  <circle cx="42" cy="35" r="1.5" fill="#e74c3c"/>
  <circle cx="42" cy="41" r="1.5" fill="#9b59b6"/>
  
  <!-- Management symbol (gear) -->
  <g transform="translate(24, 8)">
    <path d="M8,1.5 L8,0.5 C8,0.2 7.8,0 7.5,0 L6.5,0 C6.2,0 6,0.2 6,0.5 L6,1.5 C5.4,1.7 4.9,2 4.4,2.4 L3.7,1.7 C3.5,1.5 3.2,1.5 3,1.7 L2.3,2.4 C2.1,2.6 2.1,2.9 2.3,3.1 L3,3.8 C2.6,4.3 2.3,4.8 2.1,5.4 L1.1,5.4 C0.8,5.4 0.6,5.6 0.6,5.9 L0.6,6.9 C0.6,7.2 0.8,7.4 1.1,7.4 L2.1,7.4 C2.3,8 2.6,8.5 3,9 L2.3,9.7 C2.1,9.9 2.1,10.2 2.3,10.4 L3,11.1 C3.2,11.3 3.5,11.3 3.7,11.1 L4.4,10.4 C4.9,10.8 5.4,11.1 6,11.3 L6,12.3 C6,12.6 6.2,12.8 6.5,12.8 L7.5,12.8 C7.8,12.8 8,12.6 8,12.3 L8,11.3 C8.6,11.1 9.1,10.8 9.6,10.4 L10.3,11.1 C10.5,11.3 10.8,11.3 11,11.1 L11.7,10.4 C11.9,10.2 11.9,9.9 11.7,9.7 L11,9 C11.4,8.5 11.7,8 11.9,7.4 L12.9,7.4 C13.2,7.4 13.4,7.2 13.4,6.9 L13.4,5.9 C13.4,5.6 13.2,5.4 12.9,5.4 L11.9,5.4 C11.7,4.8 11.4,4.3 11,3.8 L11.7,3.1 C11.9,2.9 11.9,2.6 11.7,2.4 L11,1.7 C10.8,1.5 10.5,1.5 10.3,1.7 L9.6,2.4 C9.1,2 8.6,1.7 8,1.5 Z M7,9.5 C5.6,9.5 4.5,8.4 4.5,7 C4.5,5.6 5.6,4.5 7,4.5 C8.4,4.5 9.5,5.6 9.5,7 C9.5,8.4 8.4,9.5 7,9.5 Z" fill="#2c3e50" opacity="0.7"/>
  </g>
</svg>